#!OML:ASF F:\VICON\USERDATA\INSTALL\rory3\rory3.ASF
:FULLY-SPECIFIED
:DEGREES
861
root 2.51301 17.8557 0.87749 4.81916 18.9518 -3.51589
lowerback 7.04845 4.81985 3.23735
upperback -0.472292 6.67836 -0.394522
thorax -4.00953 3.23999 -2.88195
lowerneck -21.373 -14.4075 -10.8844
upperneck 7.74793 -17.9007 10.8939
head 7.74075 -7.9979 2.74847
rclavicle -1.2424e-014 1.3418e-014
rhumerus 59.608 -22.6535 -51.5025
rradius 46.3223
rwrist 20.6577
rhand -60.6865 -20.7348
rfingers 7.12502
rthumb -32.8052 -47.7759
lclavicle -1.2424e-014 1.3418e-014
lhumerus -36.9906 1.58993 67.5775
lradius 52.2539
lwrist -5.22233
lhand -12.6729 26.3895
lfingers 7.12502
lthumb 13.4085 55.938
rfemur -5.36214 -5.11574 12.9302
rtibia 18.6531
rfoot -20.461 -17.3892
rtoes 7.30008
lfemur -17.2193 -1.93945 -14.2022
ltibia 29.8166
lfoot -15.9729 -5.6713
ltoes -19.8208
862
root 2.5279 17.8577 0.883966 4.83548 18.9554 -3.5968
lowerback 6.94667 4.88094 3.27018
upperback -0.523386 6.75403 -0.541365
thorax -3.97901 3.27602 -3.04978
lowerneck -21.3422 -14.3163 -10.8067
upperneck 7.83556 -17.7909 10.7736
head 7.73424 -7.95414 2.71923
rclavicle -2.80535e-014 1.47101e-014
rhumerus 58.8379 -21.1318 -48.2074
rradius 46.0077
rwrist 21.9194
rhand -60.8486 -20.1988
rfingers 7.12502
rthumb -32.9593 -47.2076
lclavicle -2.80535e-014 1.47101e-014
lhumerus -37.264 2.04282 67.3122
lradius 52.1578
lwrist -5.45789
lhand -12.9043 25.0243
lfingers 7.12502
lthumb 13.1855 54.5874
rfemur -5.2525 -5.07547 12.9584
rtibia 18.3942
rfoot -20.2302 -17.5062
rtoes 6.97575
lfemur -17.2117 -1.88744 -14.171
ltibia 29.8403
lfoot -16.014 -5.68935
ltoes -19.4664
863
root 2.54025 17.8613 0.893295 4.74991 18.9941 -3.77744
lowerback 6.87926 4.93004 3.38292
upperback -0.556168 6.82161 -0.67793
thorax -3.94089 3.30686 -3.25208
lowerneck -21.3932 -14.2393 -10.5891
upperneck 7.9984 -17.7195 10.5447
head 7.74547 -7.92899 2.62419
rclavicle 5.07646e-014 -1.31198e-014
rhumerus 57.8179 -19.4916 -44.5501
rradius 45.9731
rwrist 23.2291
rhand -60.8226 -19.2586
rfingers 7.12502
rthumb -32.9346 -46.2726
lclavicle 5.07646e-014 -1.31198e-014
lhumerus -37.4574 2.55362 67.0566
lradius 51.9603
lwrist -5.62165
lhand -13.5495 21.4923
lfingers 7.12502
lthumb 12.5635 51.0946
rfemur -5.06772 -4.9473 13.1168
rtibia 18.182
rfoot -20.1194 -17.6915
rtoes 6.66064
lfemur -17.1215 -1.83563 -14.0282
ltibia 29.813
lfoot -16.0487 -5.67789
ltoes -19.3752
864
root 2.54769 17.8663 0.89991 4.71862 19.0885 -3.91868
lowerback 6.66025 4.98531 3.28605
upperback -0.472142 6.87844 -0.672097
thorax -3.73834 3.34425 -3.16979
lowerneck -21.5382 -14.2334 -10.5319
upperneck 8.0301 -17.669 10.2872
head 7.73956 -7.92011 2.53688
rclavicle -1.81391e-014 -5.76476e-015
rhumerus 57.014 -17.8385 -40.7415
rradius 46.1418
rwrist 25.0586
rhand -60.7832 -17.7371
rfingers 7.12502
rthumb -32.8971 -44.759
lclavicle -1.81391e-014 -5.76476e-015
lhumerus -37.4495 3.26124 67.1212
lradius 51.7383
lwrist -5.80342
lhand -13.2271 24.3869
lfingers 7.12502
lthumb 12.8742 53.9698
rfemur -4.91316 -4.71514 13.2586
rtibia 17.9702
rfoot -20.1273 -17.9058
rtoes 6.55358
lfemur -17.1246 -1.77423 -13.9114
ltibia 29.7745
lfoot -16.0289 -5.75277
ltoes -19.2577
865
root 2.55469 17.8688 0.904712 4.65132 19.2513 -4.06889
lowerback 6.34088 5.06584 3.08057
upperback -0.316548 6.96023 -0.569616
thorax -3.4288 3.40012 -2.9161
lowerneck -21.7108 -14.2137 -10.744
upperneck 8.1825 -17.5808 10.3002
head 7.82819 -7.87314 2.57232
rclavicle 1.79155e-014 1.13307e-014
rhumerus 56.2393 -16.2134 -36.7894
rradius 46.1951
rwrist 27.367
rhand -60.6001 -16.0117
rfingers 7.12502
rthumb -32.723 -43.0699
lclavicle 1.79155e-014 1.13307e-014
lhumerus -37.3223 3.96399 67.3693
lradius 51.395
lwrist -6.00232
lhand -13.3455 25.4535
lfingers 7.12502
lthumb 12.7601 55.0436
rfemur -4.70313 -4.48361 13.406
rtibia 17.7547
rfoot -20.3315 -18.0429
rtoes 7.23752
lfemur -17.112 -1.7194 -13.7824
ltibia 29.7235
lfoot -16.0361 -5.86492
ltoes -19.2311
